<?xml version="1.0" encoding="utf-8"?>
<!-- Generator: Adobe Illustrator 21.0.1, SVG Export Plug-In . SVG Version: 6.00 Build 0)  -->
<svg version="1.1" id="Layer_1" focusable="false" xmlns="http://www.w3.org/2000/svg" xmlns:xlink="http://www.w3.org/1999/xlink"
	 x="0px" y="0px" viewBox="0 0 448 512" style="enable-background:new 0 0 448 512;" xml:space="preserve">
<style type="text/css">
	.st0{fill:#FFFFFF;}
</style>
<path class="st0" d="M448,264.8C448,383.9,351,481,231.8,481c-47.2,0-91.9-15-129.6-43.3c-13.7-10.2-16.4-29.6-6.2-43.3
	c10.2-13.6,29.6-16.4,43.3-6.2c26.9,20.2,58.9,30.8,92.6,30.8c85.1,0,154.3-69.2,154.3-154.3S317,110.5,231.9,110.5
	c-48.6,0-94.2,23.3-123.2,61.6h61.2c17.1,0,30.9,13.8,30.9,30.9s-13.8,30.9-30.9,30.9h-139C13.8,233.9,0,220.1,0,203v-139
	c0-17.1,13.8-30.9,30.9-30.9s30.9,13.8,30.9,30.9v67.8c40.6-51.8,102.4-83.2,170-83.2C351,48.6,448,145.6,448,264.8z"/>
</svg>
