<?xml version="1.0" encoding="utf-8"?>
<!-- Generator: Adobe Illustrator 21.0.1, SVG Export Plug-In . SVG Version: 6.00 Build 0)  -->
<svg version="1.1" id="Layer_1" focusable="false" xmlns="http://www.w3.org/2000/svg" xmlns:xlink="http://www.w3.org/1999/xlink"
	 x="0px" y="0px" viewBox="0 0 448 512" style="enable-background:new 0 0 448 512;" xml:space="preserve">
<style type="text/css">
	.st0{fill:#FFFFFF;}
</style>
<path class="st0" d="M432.9,400.9v-290c9.3-8.4,15.1-20.5,15.1-34c0-25.3-20.5-45.8-45.8-45.8c-13.5,0-25.6,5.8-34,15.1H79.8
	c-8.4-9.3-20.5-15.1-34-15.1C20.5,31.1,0,51.6,0,76.9c0,13.5,5.8,25.6,15.1,34v290C5.8,409.3,0,421.4,0,434.9
	c0,25.3,20.5,45.8,45.8,45.8c13.5,0,25.6-5.8,34-15.1h288.3c8.4,9.3,20.5,15.1,34,15.1c25.3,0,45.8-20.5,45.8-45.8
	C448,421.4,442.2,409.3,432.9,400.9z M76.5,400.9v-290c1.2-1.1,2.3-2.2,3.4-3.4h288.3c1.1,1.2,2.2,2.3,3.4,3.4v290
	c-1.2,1.1-2.3,2.2-3.4,3.4H79.8C78.8,403.1,77.6,402,76.5,400.9z"/>
</svg>
