<?xml version="1.0" encoding="utf-8"?>
<!-- Generator: Adobe Illustrator 16.0.2, SVG Export Plug-In . SVG Version: 6.00 Build 0)  -->
<!DOCTYPE svg PUBLIC "-//W3C//DTD SVG 1.1//EN" "http://www.w3.org/Graphics/SVG/1.1/DTD/svg11.dtd">
<svg version="1.1" id="Layer_1" focusable="false" xmlns="http://www.w3.org/2000/svg" xmlns:xlink="http://www.w3.org/1999/xlink"
	 x="0px" y="0px" width="1700.791px" height="1133.859px" viewBox="0 0 1700.791 1133.859"
	 enable-background="new 0 0 1700.791 1133.859" xml:space="preserve">
<path fill="#FFFFFF" d="M1405.314,489.379c0-39.176-31.691-70.865-70.867-70.865h-820.94l162.383-162.439
	c27.684-27.682,27.684-72.527,0-100.209c-27.682-27.682-72.527-27.682-100.209,0L292.215,439.33
	c-27.682,27.682-27.682,72.416,0.122,100.166l283.466,283.465c27.703,27.703,72.549,27.66,100.209,0
	c27.682-27.684,27.682-72.527,0-100.209L513.507,560.246h750.074v450.506h141.732V489.418
	C1405.313,489.405,1405.314,489.393,1405.314,489.379z"/>
</svg>
